<?xml version="1.0" standalone="no"?>
<!DOCTYPE svg PUBLIC "-//W3C//DTD SVG 20010904//EN"
 "http://www.w3.org/TR/2001/REC-SVG-20010904/DTD/svg10.dtd">
<svg version="1.0" xmlns="http://www.w3.org/2000/svg"
 width="629.000000pt" height="627.000000pt" viewBox="0 0 629.000000 627.000000"
 preserveAspectRatio="xMidYMid meet">

<g transform="translate(0.000000,627.000000) scale(0.100000,-0.100000)"
fill="#fff" stroke="none">
<path d="M3009 6198 c-13 -5 -30 -8 -38 -7 -9 1 -38 -1 -66 -6 -27 -4 -72 -9
-100 -10 -27 -1 -52 -3 -55 -5 -3 -1 -13 -1 -23 0 -10 1 -26 -4 -35 -12 -11
-9 -14 -10 -8 0 4 7 1 12 -8 12 -9 0 -16 -4 -16 -10 0 -5 -22 -10 -50 -10 -50
0 -141 -19 -150 -31 -3 -4 -27 -9 -55 -12 -79 -9 -125 -19 -125 -26 0 -4 -21
-13 -47 -20 -27 -7 -55 -15 -63 -18 -8 -3 -22 -7 -30 -9 -41 -8 -89 -28 -84
-35 4 -8 -43 -14 -68 -10 -5 0 -8 -4 -8 -9 0 -6 -6 -10 -14 -10 -12 0 -44 -14
-118 -51 -10 -5 -22 -9 -28 -9 -6 0 -20 -9 -32 -20 -12 -11 -32 -20 -45 -20
-13 0 -23 -4 -23 -8 0 -5 -21 -19 -47 -32 -27 -13 -60 -32 -75 -42 -14 -10
-33 -18 -42 -18 -9 0 -16 -4 -16 -10 0 -5 -7 -10 -16 -10 -9 0 -29 -13 -44
-30 -15 -16 -35 -30 -44 -30 -9 0 -16 -4 -16 -10 0 -5 -7 -10 -15 -10 -8 0
-15 -4 -15 -10 0 -5 -7 -10 -15 -10 -8 0 -15 -4 -15 -8 0 -5 -12 -15 -27 -23
-15 -8 -45 -31 -66 -51 -22 -21 -43 -38 -48 -38 -12 0 -46 -28 -84 -67 -17
-18 -37 -33 -44 -33 -7 0 -9 -4 -6 -10 3 -5 2 -10 -3 -10 -6 0 -33 -22 -61
-50 -28 -27 -57 -50 -64 -50 -8 0 -20 -12 -28 -27 -8 -15 -38 -52 -66 -82 -29
-30 -53 -58 -53 -63 0 -6 -20 -29 -45 -54 -25 -24 -45 -47 -45 -52 0 -4 -16
-26 -35 -47 -20 -21 -43 -51 -53 -67 -9 -15 -20 -28 -24 -28 -4 0 -8 -8 -8
-18 0 -10 -9 -24 -20 -32 -11 -8 -20 -21 -20 -30 0 -9 -9 -22 -20 -30 -11 -8
-20 -22 -20 -32 0 -10 -4 -18 -9 -18 -5 0 -14 -13 -21 -30 -7 -16 -16 -30 -21
-30 -5 0 -9 -9 -9 -20 0 -11 -4 -20 -10 -20 -5 0 -10 -7 -10 -16 0 -8 -7 -22
-15 -31 -9 -8 -19 -28 -22 -44 -3 -16 -9 -29 -13 -29 -4 0 -13 -15 -20 -32 -7
-18 -30 -70 -51 -116 -22 -45 -39 -94 -39 -107 0 -14 -4 -25 -10 -25 -5 0 -10
-7 -10 -15 0 -9 -9 -33 -20 -55 -11 -22 -20 -50 -20 -64 0 -14 -4 -28 -10 -31
-5 -3 -10 -17 -10 -31 0 -13 -4 -24 -9 -24 -10 0 -22 -46 -27 -105 -2 -22 -7
-47 -10 -55 -4 -8 -8 -22 -9 -30 -2 -8 -6 -26 -11 -40 -4 -14 -9 -49 -11 -79
-3 -34 -8 -49 -13 -41 -5 8 -9 -18 -9 -62 0 -41 -5 -87 -11 -102 -5 -15 -10
-49 -10 -76 0 -27 -4 -51 -9 -54 -14 -9 -14 -448 0 -457 6 -4 13 -38 14 -75 2
-38 7 -80 12 -94 5 -14 9 -43 9 -65 -1 -22 2 -42 6 -45 3 -3 8 -35 10 -72 1
-45 7 -69 16 -73 7 -2 12 -10 10 -17 -1 -7 4 -30 11 -51 7 -21 11 -49 8 -62
-2 -14 0 -26 4 -27 5 -2 10 -15 11 -30 1 -16 6 -28 10 -28 4 0 8 -13 8 -29 0
-16 4 -31 9 -33 6 -1 11 -24 12 -50 2 -26 6 -45 11 -42 4 3 8 0 8 -6 0 -6 9
-30 20 -52 11 -23 20 -52 20 -65 0 -13 4 -23 9 -23 5 0 11 -13 14 -29 3 -16
12 -35 19 -42 7 -8 15 -25 16 -39 2 -14 8 -27 13 -28 5 -2 9 -15 9 -28 0 -14
4 -22 10 -19 6 3 10 -3 10 -14 0 -12 5 -21 10 -21 6 0 10 -12 10 -26 0 -14 4
-23 10 -19 5 3 10 -3 10 -14 0 -12 3 -21 8 -21 9 0 32 -49 32 -68 0 -7 4 -10
10 -7 5 3 10 -1 10 -9 0 -9 5 -16 10 -16 6 0 10 -9 10 -20 0 -11 5 -20 10 -20
6 0 10 -6 10 -14 0 -7 14 -27 30 -44 17 -18 30 -39 30 -47 0 -8 5 -15 10 -15
6 0 10 -6 10 -13 0 -7 18 -33 40 -57 22 -24 40 -49 40 -55 0 -6 9 -17 20 -25
11 -8 20 -20 20 -28 0 -7 21 -34 48 -60 26 -26 59 -63 72 -82 26 -37 148 -159
226 -225 26 -22 73 -66 105 -97 33 -32 63 -58 68 -58 5 0 27 -18 50 -40 22
-22 46 -40 52 -40 7 0 20 -9 30 -21 9 -11 20 -19 22 -17 3 2 17 -7 31 -20 15
-12 33 -22 41 -22 8 0 15 -4 15 -10 0 -5 8 -10 18 -10 10 0 24 -9 32 -20 8
-11 21 -20 28 -20 15 0 75 -39 80 -52 2 -4 12 -8 23 -8 10 0 19 -4 19 -10 0
-5 9 -10 20 -10 11 0 20 -3 20 -7 0 -9 49 -33 67 -33 7 0 13 -4 13 -10 0 -5 9
-10 20 -10 11 0 20 -4 20 -10 0 -5 14 -10 30 -10 17 0 30 -4 30 -10 0 -5 7
-10 15 -10 15 0 55 -19 65 -31 8 -9 71 -29 92 -29 11 0 26 -7 34 -15 9 -8 27
-17 42 -20 15 -3 41 -10 57 -16 17 -6 38 -12 47 -13 10 -1 21 -5 24 -9 4 -4
16 -7 26 -7 10 0 18 -4 18 -9 0 -5 19 -11 43 -14 53 -7 96 -16 122 -27 29 -13
81 -21 160 -27 39 -3 76 -9 83 -15 8 -7 12 -7 12 1 0 6 7 11 16 11 8 0 12 -4
9 -10 -3 -5 -2 -10 4 -10 5 0 12 6 14 13 4 8 8 9 14 1 4 -6 46 -15 93 -19 87
-9 403 -10 475 -2 22 3 61 6 88 8 26 1 47 6 47 11 0 4 5 8 11 8 5 0 7 -4 4
-10 -8 -13 11 -13 34 -1 10 6 53 12 97 14 80 4 113 12 126 31 3 5 26 11 49 12
24 1 45 6 46 11 2 5 24 8 48 6 25 -2 45 1 45 6 0 5 16 12 35 15 19 4 35 11 35
15 0 5 11 6 25 3 15 -2 25 0 25 7 0 6 12 11 28 11 15 0 49 12 75 26 27 14 55
23 63 20 7 -3 16 -1 19 4 3 5 12 7 19 4 7 -3 20 2 29 10 9 9 20 16 25 16 5 0
15 6 22 14 6 8 19 12 27 9 11 -4 14 -2 9 5 -4 7 -3 12 3 12 5 0 12 -6 14 -12
4 -10 6 -10 6 0 1 6 7 12 14 12 7 0 28 14 46 30 26 24 36 28 47 19 10 -8 14
-8 14 0 0 6 9 11 20 11 11 0 19 6 17 13 -1 6 6 11 15 9 9 -1 19 2 23 8 3 5 14
10 25 10 10 0 21 7 24 16 4 10 12 14 22 10 11 -4 15 -2 11 8 -4 11 -1 13 10 9
11 -4 14 -2 9 5 -4 7 -2 13 3 13 35 4 72 20 66 28 -2 5 14 13 35 20 22 6 40
16 40 21 0 5 14 17 31 26 25 13 29 18 18 26 -11 8 -10 8 5 4 12 -4 24 2 38 19
11 14 28 25 39 25 11 0 22 6 25 14 3 8 19 20 35 26 16 7 26 16 23 21 -3 5 -1
9 4 9 14 0 72 62 72 77 0 7 11 13 24 13 19 0 64 39 175 150 83 83 151 153 151
156 0 5 14 24 43 55 9 10 15 19 12 19 -3 0 7 12 22 27 16 16 42 49 58 75 17
27 34 48 38 48 5 0 6 4 3 9 -3 5 9 24 27 43 19 18 37 45 40 59 4 14 18 38 32
53 14 15 25 31 25 37 0 5 5 9 11 9 6 0 9 7 6 15 -4 8 -2 17 4 20 5 4 20 27 33
53 13 26 34 57 46 69 11 13 16 23 11 23 -13 0 18 60 34 66 7 3 11 14 8 25 -4
13 0 19 11 19 11 0 16 9 16 33 0 19 8 42 20 55 11 12 20 33 20 47 0 14 5 25
10 25 6 0 10 11 10 25 0 14 5 25 11 25 6 0 9 6 6 13 -2 6 2 25 10 40 8 16 12
35 9 43 -3 7 1 20 9 28 8 8 15 26 15 40 0 14 5 28 10 31 6 3 10 17 10 31 0 13
4 24 8 24 5 0 9 16 10 35 1 22 -3 35 -11 35 -8 0 -9 3 -1 8 21 14 36 55 30 83
-4 22 -2 29 9 29 10 0 15 11 15 34 0 19 5 38 10 41 6 3 10 11 10 16 0 6 -3 8
-7 6 -5 -3 -8 8 -8 24 0 16 3 29 6 29 3 0 6 21 6 46 0 25 5 49 12 53 9 6 8 11
-2 20 -15 12 -12 51 4 51 5 0 9 5 9 11 0 5 -4 8 -9 5 -5 -4 -7 3 -4 14 3 11 8
18 12 16 4 -3 6 13 5 36 -1 22 2 54 7 71 5 19 5 35 -1 42 -5 7 -7 15 -3 19 9
9 10 297 1 302 -5 3 -8 11 -8 17 0 7 4 6 10 -3 6 -9 10 -10 10 -3 0 7 -11 23
-23 35 -17 17 -22 30 -16 43 5 14 1 25 -15 38 -20 16 -20 18 -3 28 14 8 15 14
6 30 -6 11 -7 28 -4 37 4 9 9 29 10 43 2 20 -2 25 -19 25 -12 -1 -21 5 -21 14
0 8 8 15 17 15 9 0 20 4 25 9 4 5 3 6 -4 2 -8 -4 -13 -1 -13 8 0 8 -9 18 -20
21 -22 7 -26 20 -10 30 6 4 8 11 5 16 -3 5 -16 0 -27 -11 -12 -11 -28 -20 -36
-20 -13 0 -13 -2 -1 -17 8 -10 14 -32 14 -49 -1 -23 3 -30 13 -26 11 4 13 -4
11 -33 -3 -31 0 -40 16 -45 19 -8 19 -8 -4 -17 -16 -6 -20 -12 -13 -17 7 -4
10 -17 6 -33 -6 -21 -4 -24 7 -18 11 7 12 6 2 -6 -10 -12 -14 -46 -13 -106 0
-10 -1 -54 -2 -98 -1 -85 -1 -191 2 -265 1 -25 7 -48 13 -52 9 -5 9 -10 -1
-20 -16 -16 -16 -50 1 -67 10 -10 8 -11 -7 -5 -15 6 -17 4 -10 -7 11 -19 13
-58 4 -90 -5 -16 -4 -31 2 -37 7 -7 4 -15 -11 -24 -24 -15 -29 -40 -6 -32 8 4
15 1 15 -5 0 -6 -6 -10 -12 -8 -7 1 -14 -8 -16 -21 -2 -12 -7 -20 -10 -18 -4
2 -7 -15 -7 -39 1 -26 -3 -41 -9 -39 -7 3 -11 -11 -10 -33 0 -21 -4 -44 -10
-52 -6 -7 -11 -24 -12 -37 0 -13 -6 -29 -12 -37 -7 -8 -13 -33 -14 -55 -1 -23
-5 -39 -10 -36 -4 3 -8 -2 -8 -11 0 -9 -9 -35 -20 -57 -11 -23 -20 -49 -20
-59 0 -9 -14 -43 -30 -74 -17 -31 -30 -70 -30 -86 0 -16 -4 -29 -10 -29 -5 0
-10 -9 -10 -20 0 -11 -3 -20 -8 -20 -7 0 -21 -29 -43 -93 -7 -20 -17 -37 -21
-37 -4 0 -8 -10 -8 -23 0 -12 -9 -29 -20 -37 -11 -8 -20 -20 -20 -28 0 -7 -7
-20 -15 -28 -8 -9 -18 -27 -22 -42 -3 -15 -13 -34 -22 -42 -9 -8 -17 -21 -19
-29 -2 -8 -12 -22 -23 -32 -10 -9 -19 -21 -19 -26 0 -6 -9 -18 -20 -28 -11
-10 -20 -23 -20 -29 0 -7 -18 -32 -40 -56 -22 -24 -40 -48 -40 -52 0 -5 -20
-29 -45 -54 -25 -25 -43 -48 -41 -53 3 -4 -4 -14 -15 -21 -10 -8 -19 -20 -19
-27 0 -7 -4 -13 -10 -13 -5 0 -10 -5 -10 -11 0 -13 -58 -69 -71 -69 -5 0 -9
-5 -9 -11 0 -7 -20 -32 -45 -56 -25 -24 -45 -48 -45 -53 0 -6 -6 -10 -14 -10
-8 0 -16 -7 -20 -15 -3 -8 -12 -15 -20 -15 -9 0 -23 -14 -31 -30 -9 -17 -20
-28 -25 -25 -9 6 -33 -11 -78 -53 -13 -13 -26 -21 -29 -18 -3 3 -14 -5 -24
-17 -10 -12 -18 -18 -19 -13 0 5 -9 1 -20 -9 -11 -10 -20 -15 -20 -11 0 4 -11
-4 -25 -18 -13 -13 -34 -27 -45 -31 -11 -3 -20 -12 -20 -20 0 -8 -7 -11 -20
-8 -11 3 -20 1 -20 -5 0 -5 -8 -12 -17 -15 -10 -3 -29 -12 -43 -20 -51 -29
-112 -57 -126 -57 -8 0 -17 -7 -20 -15 -4 -11 -18 -15 -41 -13 -19 1 -37 -2
-41 -7 -4 -6 -14 -12 -22 -14 -46 -12 -105 -36 -108 -42 -2 -5 -12 -3 -22 3
-14 9 -22 9 -32 0 -11 -9 -17 -9 -26 0 -9 9 -16 8 -29 -4 -10 -8 -31 -18 -48
-22 -16 -3 -41 -9 -55 -12 -14 -3 -68 -6 -122 -7 -53 -1 -94 -5 -91 -9 6 -11
-119 3 -134 14 -7 5 -14 5 -18 -2 -3 -6 -10 -8 -14 -6 -17 11 -61 14 -67 5 -4
-6 -14 -5 -27 4 -12 8 -36 14 -54 15 -17 0 -40 5 -51 11 -10 5 -27 10 -38 10
-43 -1 -132 13 -170 26 -23 8 -51 11 -62 8 -18 -4 -21 -1 -17 17 3 17 1 19 -9
11 -15 -13 -82 3 -108 26 -9 8 -31 16 -48 17 -17 0 -30 6 -30 13 0 7 -9 13
-19 13 -11 0 -32 5 -48 12 -15 6 -34 10 -42 9 -7 -1 -10 2 -7 7 3 6 -1 12 -8
15 -8 3 -17 1 -20 -6 -3 -9 -7 -9 -13 -1 -8 12 -53 29 -65 26 -5 -1 -7 1 -7 6
4 23 -4 32 -26 32 -14 0 -25 4 -25 8 0 5 -18 15 -40 22 -21 7 -38 16 -35 19 2
4 -16 13 -40 20 -24 7 -46 19 -49 28 -3 8 -10 11 -16 8 -5 -3 -10 -1 -10 4 0
6 -9 11 -20 11 -11 0 -20 5 -20 10 0 6 -9 10 -20 10 -11 0 -20 5 -20 10 0 6
-9 10 -21 10 -11 0 -18 4 -15 9 3 4 -12 14 -34 21 -22 7 -47 21 -56 32 -10 10
-25 18 -36 18 -10 0 -18 4 -18 9 0 5 -10 13 -22 17 -13 3 -30 14 -39 23 -30
29 -59 51 -69 51 -6 0 -10 5 -10 10 0 6 -7 10 -15 10 -13 0 -30 11 -69 45 -6
6 -23 16 -38 24 -15 8 -25 18 -22 23 3 5 2 8 -3 7 -4 -1 -23 5 -42 13 -22 10
-29 17 -20 21 8 3 5 6 -8 6 -13 1 -23 6 -23 11 0 6 -7 10 -16 10 -9 0 -28 13
-42 28 -15 16 -37 34 -49 41 -13 6 -22 15 -22 19 3 18 -2 33 -8 29 -5 -3 -7
18 -6 46 2 29 7 53 13 55 5 2 10 12 10 23 0 10 5 19 10 19 6 0 10 7 10 16 0 8
5 12 10 9 6 -4 10 6 10 22 0 17 8 34 20 43 11 8 20 24 20 37 0 12 5 25 11 28
6 4 8 13 5 21 -3 7 0 17 7 21 7 5 17 22 23 38 6 17 16 29 22 28 7 -2 12 9 12
27 0 17 5 30 11 30 6 0 9 6 6 14 -3 8 1 20 9 26 8 7 14 19 14 26 0 8 5 14 11
14 6 0 9 7 5 15 -3 8 1 21 9 29 8 8 15 26 15 41 0 14 4 24 9 21 5 -4 8 5 6 20
-2 18 2 24 11 20 10 -4 14 3 14 24 0 17 5 30 10 30 6 0 10 9 10 20 0 11 4 20
8 20 5 0 14 23 21 50 7 28 17 50 22 50 5 0 9 14 9 30 0 17 5 30 11 30 6 0 8 7
5 16 -3 9 -3 21 1 27 4 7 9 3 14 -9 5 -13 8 -4 8 29 1 26 6 47 11 47 6 0 10 7
10 16 0 8 5 12 10 9 6 -4 10 8 10 29 0 20 5 36 10 36 6 0 10 6 9 12 -3 26 1
39 11 33 6 -3 10 3 10 14 0 12 5 21 11 21 6 0 9 7 5 15 -3 8 1 21 9 29 8 8 15
23 15 34 0 11 9 31 20 45 11 14 20 33 20 42 0 9 8 29 18 43 10 15 24 42 31 60
8 17 17 32 22 32 5 0 9 13 9 28 0 16 8 34 20 42 11 8 20 24 20 35 0 12 9 31
20 43 11 12 20 30 20 41 0 11 5 23 11 26 6 4 8 13 5 21 -3 8 1 14 9 14 8 0 15
9 15 21 0 11 5 17 10 14 6 -3 10 3 10 14 0 12 5 21 10 21 6 0 10 9 10 20 0 11
4 20 9 20 5 0 8 11 7 24 -2 17 1 23 10 19 9 -3 14 2 14 16 0 12 5 21 11 21 7
0 9 10 7 25 -3 14 -1 28 5 32 6 3 7 1 3 -5 -4 -7 -2 -12 3 -12 6 0 11 9 11 20
0 11 6 20 13 20 9 0 9 2 0 8 -9 6 -7 12 7 22 11 8 20 22 20 32 0 10 5 18 11
18 5 0 8 4 4 9 -3 5 2 16 10 24 8 9 15 22 15 29 1 18 26 49 33 41 4 -3 7 3 7
15 0 12 9 27 20 34 11 7 20 21 20 30 0 10 5 18 11 18 5 0 7 5 4 10 -3 6 1 13
9 16 9 3 16 12 16 20 0 8 5 14 10 14 6 0 10 9 10 20 0 11 5 20 10 20 6 0 10 7
10 16 0 9 9 18 20 21 11 3 20 13 20 23 0 10 7 25 15 34 9 8 14 19 13 23 -2 4
14 12 35 17 39 10 68 2 69 -19 0 -5 4 -16 10 -22 7 -8 7 -30 2 -60 -4 -27 -8
-55 -7 -63 1 -8 -3 -17 -8 -21 -18 -11 -33 -242 -19 -270 7 -12 6 -19 -5 -22
-7 -3 -16 -1 -19 6 -4 7 -4 -1 0 -18 3 -16 5 -39 4 -50 0 -11 -1 -31 -1 -45 0
-14 -5 -30 -11 -37 -5 -7 -7 -21 -3 -33 3 -11 3 -20 -2 -20 -4 0 -9 -29 -10
-65 -1 -35 -6 -72 -11 -82 -5 -10 -10 -49 -12 -88 -1 -38 -3 -83 -5 -100 -6
-61 -17 -130 -22 -145 -3 -8 -7 -40 -9 -70 -2 -30 -9 -67 -15 -83 -7 -17 -10
-54 -6 -97 3 -40 2 -72 -4 -75 -5 -4 -9 -18 -9 -33 0 -51 -9 -115 -17 -121 -5
-3 -9 -33 -10 -66 -1 -33 -2 -66 -3 -73 0 -7 -4 -11 -9 -8 -4 3 -9 -53 -9
-125 -1 -71 -6 -138 -12 -148 -8 -16 -23 -132 -21 -166 4 -63 19 -82 50 -63
11 7 21 19 21 26 0 7 5 10 11 6 8 -4 9 0 4 15 -4 13 -2 21 5 21 6 0 8 -5 5
-10 -3 -6 -1 -10 4 -10 6 0 11 10 11 23 0 18 2 19 11 7 9 -12 10 -11 6 7 -3
13 -1 23 5 23 15 0 38 27 38 44 0 9 4 16 10 16 5 0 9 3 9 8 -4 22 3 32 21 32
13 0 20 7 20 19 0 11 9 26 19 33 11 8 21 20 23 28 2 8 11 22 21 31 9 9 17 22
17 28 0 7 5 9 10 6 6 -3 10 4 10 17 0 18 2 20 10 8 8 -12 10 -11 10 8 0 12 5
22 11 22 5 0 7 4 4 10 -3 5 1 10 9 10 9 0 16 8 16 18 0 10 9 24 20 32 11 8 20
20 20 28 0 7 5 10 10 7 6 -3 10 2 10 12 0 10 9 25 19 33 11 7 18 17 15 21 -2
4 11 24 31 43 19 19 35 40 35 46 0 6 5 8 10 5 6 -3 10 1 10 11 0 9 9 25 21 35
11 9 21 21 22 26 1 4 5 7 10 6 4 -2 7 5 7 15 0 10 9 24 20 32 11 8 20 21 20
30 0 9 9 22 20 30 11 8 20 20 20 28 0 7 8 16 18 19 22 9 42 29 42 43 0 6 5 8
10 5 6 -4 10 5 10 21 0 15 3 25 6 21 8 -8 34 18 34 33 0 7 14 25 30 40 17 15
30 33 30 40 0 6 5 8 10 5 6 -3 10 2 10 12 0 10 9 25 20 33 11 8 20 20 20 28 0
7 3 11 8 9 4 -3 13 1 20 9 9 10 10 14 1 14 -7 0 -2 9 11 20 13 11 20 20 17 20
-6 0 20 34 51 66 6 7 12 17 12 23 0 6 5 11 10 11 6 0 16 11 22 25 6 14 19 25
30 25 10 0 18 7 18 16 0 8 22 37 50 64 31 30 45 50 37 53 -6 3 -1 6 13 7 14 1
19 4 12 7 -9 3 -3 14 18 34 16 16 30 33 30 38 0 5 9 13 20 16 11 4 18 10 15
15 -3 5 5 19 18 32 12 13 23 28 24 33 0 6 10 15 22 21 11 6 18 14 14 17 -3 4
2 7 11 7 12 0 16 5 12 16 -3 8 -2 12 4 9 6 -4 17 1 26 9 9 9 11 16 4 16 -6 0
-8 5 -5 11 4 6 13 8 21 5 10 -4 14 2 14 19 0 15 7 26 20 30 11 3 20 14 20 22
0 9 3 14 6 10 9 -8 76 62 69 72 -3 6 -1 12 5 16 5 3 10 1 10 -5 0 -7 6 -5 15
4 8 8 15 22 15 30 0 10 9 16 23 17 12 0 17 3 10 5 -13 6 109 134 127 134 6 0
41 31 78 68 37 37 75 71 85 75 9 3 17 12 17 19 0 7 16 24 35 37 30 20 41 22
68 15 30 -9 32 -13 35 -62 2 -32 -1 -52 -7 -52 -6 0 -11 -9 -11 -20 0 -11 -4
-20 -10 -20 -5 0 -10 -7 -10 -15 0 -9 -9 -25 -20 -37 -11 -12 -20 -28 -20 -35
0 -7 -4 -13 -10 -13 -5 0 -10 -9 -10 -20 0 -11 -4 -20 -10 -20 -5 0 -10 -7
-10 -15 0 -8 -4 -15 -8 -15 -5 0 -14 -16 -22 -35 -8 -19 -17 -35 -22 -35 -4 0
-8 -9 -8 -20 0 -11 -4 -20 -10 -20 -5 0 -10 -9 -10 -20 0 -11 -4 -20 -8 -20
-5 0 -20 -21 -33 -47 -13 -27 -27 -49 -31 -51 -5 -2 -8 -10 -8 -18 0 -8 -9
-24 -20 -36 -11 -12 -20 -28 -20 -35 0 -7 -4 -13 -10 -13 -5 0 -10 -7 -10 -15
0 -9 -9 -25 -20 -37 -11 -12 -20 -32 -20 -45 0 -13 -4 -23 -10 -23 -5 0 -10
-9 -10 -20 0 -11 -4 -20 -10 -20 -5 0 -10 -7 -10 -15 0 -9 -9 -25 -20 -37 -11
-12 -20 -28 -20 -35 0 -7 -5 -13 -11 -13 -5 0 -8 -4 -4 -9 3 -5 -2 -16 -10
-24 -8 -9 -15 -23 -15 -31 0 -9 -4 -16 -10 -16 -5 0 -10 -7 -10 -15 0 -9 -9
-25 -20 -37 -11 -12 -20 -32 -20 -45 0 -13 -4 -23 -10 -23 -5 0 -10 -6 -10
-13 0 -7 -9 -23 -20 -35 -11 -12 -20 -28 -20 -37 0 -8 -4 -15 -10 -15 -5 0
-10 -9 -10 -20 0 -11 -4 -20 -10 -20 -5 0 -10 -9 -10 -20 0 -11 -4 -20 -10
-20 -5 0 -10 -6 -10 -13 0 -18 -24 -67 -32 -67 -5 0 -8 -9 -8 -20 0 -11 -4
-20 -10 -20 -5 0 -10 -6 -10 -13 0 -18 -24 -67 -32 -67 -5 0 -8 -6 -8 -13 0
-18 -24 -67 -32 -67 -5 0 -8 -9 -8 -19 0 -11 -4 -23 -10 -26 -6 -3 -10 -15
-10 -26 0 -11 -9 -29 -20 -41 -11 -12 -20 -32 -20 -45 0 -14 -4 -21 -10 -18
-5 3 -7 0 -4 -8 3 -8 -2 -22 -11 -31 -9 -9 -14 -20 -11 -25 3 -5 -1 -14 -9
-21 -8 -7 -15 -23 -15 -36 0 -12 -4 -26 -10 -29 -5 -3 -10 -14 -10 -24 0 -20
-22 -71 -31 -71 -3 0 -5 -15 -4 -34 0 -19 -3 -32 -7 -30 -4 3 -8 -3 -8 -13 0
-11 -7 -28 -15 -39 -8 -10 -15 -29 -15 -41 0 -13 -4 -23 -10 -23 -5 0 -10 -9
-10 -19 0 -11 -5 -23 -10 -26 -15 -9 -12 -38 3 -29 10 6 10 4 0 -7 -7 -7 -13
-21 -13 -31 0 -9 -9 -34 -20 -54 -12 -20 -19 -38 -16 -41 2 -3 -2 -26 -9 -51
-16 -52 -18 -439 -3 -448 4 -3 8 -17 8 -32 0 -15 7 -36 15 -46 8 -10 12 -23 9
-27 -3 -5 -2 -9 3 -9 4 0 17 -18 27 -40 11 -22 26 -40 33 -40 8 0 12 -4 8 -9
-9 -16 44 -61 71 -61 14 0 23 4 19 9 -3 5 -1 12 5 16 6 4 8 10 5 15 -3 4 7 7
22 5 27 -3 27 -2 7 14 -16 13 -19 22 -13 44 4 16 5 35 2 43 -3 10 0 12 10 8
12 -4 16 6 20 48 2 29 7 62 10 73 3 11 6 35 6 53 1 19 5 31 11 27 6 -4 10 13
10 44 0 28 4 51 9 51 5 0 9 16 9 36 0 20 5 40 12 44 7 4 13 19 13 34 1 14 6
26 10 26 4 0 7 16 5 36 -1 19 2 38 7 42 6 4 11 18 13 32 1 14 10 32 20 40 9 8
19 31 20 50 2 19 8 37 13 38 5 2 7 8 4 13 -5 8 20 68 34 79 3 3 6 11 7 18 1 6
2 22 3 35 1 18 3 20 12 7 8 -12 9 -9 5 12 -3 15 -2 30 4 33 5 3 10 15 10 26 0
11 7 22 15 25 9 4 15 19 15 40 0 19 5 34 10 34 6 0 10 10 10 23 0 18 2 19 11
7 8 -12 10 -9 6 13 -3 18 0 30 9 34 8 3 11 9 8 14 -6 10 26 69 38 69 4 0 8 5
8 11 0 5 -5 7 -11 3 -8 -4 -8 0 0 15 7 11 16 21 21 21 6 0 10 13 10 28 0 16 9
38 20 50 11 12 20 29 20 39 0 10 9 29 20 43 11 14 20 32 20 41 0 8 9 25 20 37
11 12 20 32 20 44 0 13 9 30 20 38 12 8 20 26 20 42 0 15 5 28 10 28 6 0 10 9
10 20 0 11 5 20 11 20 5 0 8 4 4 9 -3 5 2 16 10 25 8 8 15 19 14 23 -3 20 2
34 11 28 6 -3 10 3 10 14 0 12 5 21 10 21 6 0 10 10 10 23 0 18 2 19 10 7 7
-11 10 -7 10 18 0 17 5 32 11 32 6 0 8 7 5 15 -3 9 1 18 9 21 8 4 15 15 15 25
0 10 5 19 10 19 6 0 10 9 10 20 0 11 5 20 10 20 6 0 10 9 10 20 0 11 5 20 10
20 6 0 10 10 10 23 0 18 2 19 10 7 7 -11 10 -7 10 18 0 17 5 32 10 32 6 0 10
10 10 23 0 18 2 19 10 7 8 -12 10 -10 11 10 1 14 1 28 0 33 0 4 4 7 9 7 6 0
10 9 10 20 0 11 5 20 10 20 6 0 10 9 10 20 0 11 5 20 10 20 6 0 10 10 10 23 0
18 2 19 10 7 7 -12 10 -8 10 14 0 16 8 36 18 45 11 9 22 28 25 43 4 15 13 33
20 40 6 7 14 22 15 33 2 11 8 22 13 23 5 2 9 10 9 18 0 8 5 14 10 14 6 0 10 7
10 15 0 8 5 15 10 15 6 0 10 7 10 15 0 8 5 15 10 15 6 0 10 9 10 20 0 11 5 20
10 20 6 0 10 9 10 20 0 11 5 20 10 20 6 0 10 9 10 20 0 11 5 20 10 20 6 0 10
10 10 23 0 18 2 19 10 7 7 -11 10 -7 10 18 0 17 5 32 10 32 6 0 10 10 10 23 0
18 2 19 10 7 8 -12 10 -11 10 8 0 12 0 25 -1 28 0 3 9 14 20 23 12 10 21 26
21 35 0 10 5 14 10 11 6 -4 10 5 10 19 0 14 5 26 10 26 6 0 10 10 10 23 0 18
2 19 10 7 8 -12 10 -11 10 8 0 12 5 22 10 22 6 0 10 9 10 20 0 11 5 20 10 20
6 0 10 10 10 23 0 18 2 19 10 7 8 -12 10 -11 10 8 0 12 6 22 13 22 9 0 9 2 0
8 -9 6 -7 12 7 22 11 8 20 20 20 28 0 7 5 10 10 7 6 -3 10 3 10 14 0 12 5 21
10 21 6 0 10 9 10 20 0 11 5 20 10 20 6 0 10 9 10 19 0 11 4 21 9 23 5 2 11 9
13 17 2 8 15 28 31 44 15 17 27 36 27 43 0 8 5 14 11 14 5 0 7 5 4 10 -3 6 1
10 9 10 9 0 16 7 16 16 0 12 7 14 33 9 35 -7 60 -32 53 -51 -3 -7 2 -15 11
-18 9 -4 13 -9 10 -13 -4 -3 3 -17 13 -31 11 -13 20 -31 20 -39 0 -8 12 -30
26 -49 18 -23 22 -34 13 -34 -10 -1 -8 -5 4 -14 10 -8 17 -20 16 -28 -1 -7 3
-26 9 -41 7 -16 9 -34 5 -40 -4 -6 0 -8 10 -4 9 3 16 3 15 -1 -2 -11 20 -59
29 -64 4 -3 2 -3 -5 -1 -15 3 -6 -38 10 -48 5 -3 9 -9 9 -13 -3 -20 1 -26 17
-26 9 0 23 9 29 19 10 16 9 20 -6 24 -19 5 -24 35 -9 53 5 7 4 14 -5 17 -8 3
-12 19 -12 41 1 20 -2 39 -7 42 -4 3 -8 14 -8 25 0 18 -15 24 -47 20 -7 -1
-13 3 -13 9 0 5 7 10 16 10 11 0 14 6 9 20 -4 13 -2 20 7 20 8 0 6 4 -4 11
-10 5 -18 19 -18 29 0 11 -6 20 -14 20 -8 0 -15 8 -15 18 -3 48 -6 62 -18 62
-7 0 -14 8 -14 18 -1 9 -2 29 -3 43 -1 15 -10 34 -19 43 -9 10 -15 22 -11 27
3 6 0 16 -6 24 -17 20 -30 84 -19 91 5 3 9 14 9 25 0 10 5 19 12 19 6 0 9 3 5
6 -3 3 3 14 14 25 10 10 19 26 19 34 0 8 5 15 10 15 6 0 10 6 10 14 0 8 7 16
15 20 8 3 15 12 15 21 0 9 7 27 16 40 15 24 15 25 -4 25 -11 0 -23 6 -25 13
-4 10 -6 10 -6 0 -1 -8 -14 -13 -31 -13 -16 0 -30 -4 -30 -10 0 -5 -12 -10
-26 -10 -14 0 -23 -4 -19 -10 10 -16 -104 -17 -115 0 -3 4 -15 10 -27 14 -12
4 -33 29 -48 57 -27 52 -109 141 -120 131 -3 -4 -3 0 0 9 3 9 -10 31 -35 57
-22 24 -40 46 -40 51 0 11 -236 251 -248 251 -5 0 -37 27 -70 60 -34 33 -66
60 -72 60 -5 0 -23 14 -38 30 -16 17 -33 30 -38 30 -5 0 -27 17 -50 38 -22 20
-47 38 -55 40 -8 2 -15 8 -17 13 -2 5 -9 9 -16 9 -7 0 -21 8 -32 18 -10 9 -40
28 -66 41 -27 13 -48 28 -48 33 0 5 -5 6 -10 3 -6 -3 -13 1 -16 10 -4 9 -13
14 -20 11 -7 -3 -19 0 -26 7 -7 7 -28 19 -45 26 -18 7 -33 17 -33 22 0 5 -9 9
-20 9 -12 0 -30 9 -42 20 -12 11 -32 20 -45 20 -13 0 -23 4 -23 9 0 5 -15 14
-32 21 -74 28 -88 35 -88 44 0 6 -6 2 -13 -8 -12 -17 -14 -17 -20 -2 -4 9 -14
16 -22 16 -10 0 -13 5 -9 12 4 6 3 8 -3 5 -5 -3 -22 1 -37 9 -16 7 -42 14 -58
14 -16 0 -27 4 -24 9 3 5 -11 11 -32 14 -62 10 -83 16 -98 28 -11 9 -14 9 -14
-1 0 -9 -4 -10 -13 -2 -7 6 -23 9 -35 5 -14 -3 -22 -1 -22 7 0 8 -8 10 -23 6
-34 -8 -69 4 -62 22 4 12 3 13 -10 2 -12 -10 -15 -10 -15 0 0 7 -8 10 -20 7
-11 -3 -23 -1 -26 4 -3 5 -10 7 -15 4 -5 -4 -9 -2 -9 3 0 5 -27 9 -61 9 -33 0
-64 4 -67 10 -7 11 -65 9 -83 -2 -5 -4 -9 0 -9 8 0 9 -16 14 -57 16 -55 2 -88
5 -158 17 -53 9 -273 10 -296 2z m-279 -72 c0 -3 -4 -8 -10 -11 -5 -3 -10 -1
-10 4 0 6 5 11 10 11 6 0 10 -2 10 -4z m217 -2 c-3 -3 -12 -4 -19 -1 -8 3 -5
6 6 6 11 1 17 -2 13 -5z m-84 -10 c3 -4 45 -6 92 -6 47 0 85 -5 85 -10 0 -5 8
-5 18 0 9 4 60 7 112 5 52 -2 100 -3 105 -3 6 0 28 0 50 1 34 1 212 -5 310
-11 26 -1 27 -3 10 -10 -21 -9 -20 -9 35 -16 61 -9 89 -17 84 -25 -3 -5 18 -9
45 -9 28 0 51 -3 51 -7 0 -5 19 -9 42 -11 23 -1 45 -6 48 -11 3 -4 19 -11 35
-15 17 -3 37 -8 45 -10 8 -3 29 -5 45 -5 23 -1 27 -4 15 -11 -11 -7 -7 -10 18
-10 17 0 32 -4 32 -10 0 -5 12 -10 26 -10 14 0 23 -4 19 -10 -4 -6 5 -10 20
-10 22 0 85 -23 137 -51 10 -5 27 -9 38 -9 11 0 20 -3 20 -7 0 -10 49 -33 68
-33 7 0 10 -4 7 -10 -3 -6 4 -10 17 -10 13 0 30 -9 38 -20 8 -11 22 -20 32
-20 10 0 18 -4 18 -10 0 -5 7 -10 15 -10 9 0 25 -9 37 -20 12 -11 30 -20 40
-20 10 0 18 -4 18 -10 0 -5 6 -10 13 -10 7 0 19 -9 27 -20 8 -11 22 -20 32
-20 10 0 18 -4 18 -10 0 -5 7 -10 16 -10 8 0 12 -4 9 -10 -3 -5 3 -10 14 -10
12 0 21 -4 21 -10 0 -5 7 -10 16 -10 8 0 33 -18 54 -40 21 -22 43 -40 49 -40
6 0 30 -18 52 -40 23 -22 45 -40 50 -40 17 0 99 -75 99 -90 0 -6 6 -10 13 -10
7 0 23 -10 34 -22 11 -13 37 -38 57 -55 20 -18 34 -33 31 -33 -6 0 48 -52 80
-76 14 -10 25 -27 25 -36 0 -10 6 -18 14 -18 8 0 18 -9 21 -20 4 -11 11 -18
16 -15 5 4 9 -3 9 -14 0 -12 5 -21 10 -21 6 0 10 -5 10 -10 0 -6 12 -23 26
-38 14 -15 33 -39 42 -54 9 -16 22 -28 30 -28 7 0 11 -4 8 -9 -3 -5 1 -12 10
-15 9 -3 12 -11 8 -18 -5 -7 -2 -9 7 -6 12 5 15 -3 14 -36 0 -28 -5 -40 -14
-38 -7 1 -10 -2 -7 -7 7 -11 -36 -58 -84 -91 -19 -13 -37 -27 -40 -31 -3 -4
-12 -9 -20 -11 -8 -2 -40 -29 -72 -60 -31 -32 -63 -58 -70 -58 -8 0 -20 -9
-28 -20 -8 -11 -20 -20 -27 -20 -6 0 -15 -9 -18 -20 -3 -11 -13 -20 -21 -20
-8 0 -14 -4 -14 -10 0 -5 -4 -10 -10 -10 -10 0 -82 -67 -260 -242 -55 -54
-104 -98 -110 -98 -5 0 -10 -9 -10 -20 0 -12 -7 -20 -16 -20 -8 0 -34 -21 -57
-46 -56 -62 -68 -74 -110 -109 -20 -16 -37 -36 -37 -42 0 -7 -5 -13 -10 -13
-6 0 -15 -11 -22 -25 -6 -13 -15 -22 -19 -19 -5 3 -9 0 -9 -6 0 -6 -35 -46
-77 -88 -43 -43 -80 -82 -83 -87 -3 -6 -8 -9 -11 -8 -3 1 -6 -5 -7 -13 -1 -7
-3 -21 -4 -29 -1 -8 -4 -12 -8 -10 -13 8 -112 -95 -106 -110 3 -9 0 -12 -10
-8 -7 3 -14 1 -14 -4 0 -14 -67 -83 -74 -76 -3 3 -6 1 -6 -6 0 -7 -22 -34 -50
-61 -27 -27 -50 -53 -50 -58 0 -4 -25 -35 -55 -68 -30 -32 -58 -67 -61 -76 -3
-10 -10 -16 -15 -13 -5 4 -9 -1 -9 -10 0 -9 -4 -13 -10 -10 -5 3 -10 1 -10 -5
0 -7 -14 -25 -31 -41 -18 -17 -25 -29 -18 -30 8 0 4 -5 -8 -11 -13 -6 -23 -17
-23 -24 0 -8 -9 -19 -20 -26 -11 -7 -20 -18 -20 -24 0 -7 -7 -15 -16 -18 -8
-3 -12 -11 -8 -17 4 -8 3 -9 -4 -5 -7 4 -12 2 -12 -4 0 -6 -4 -8 -10 -5 -5 3
-10 -1 -10 -9 0 -9 -16 -32 -35 -53 -19 -20 -32 -40 -30 -44 3 -4 -1 -9 -8
-12 -7 -3 -26 -24 -42 -48 -17 -24 -44 -59 -62 -78 -18 -19 -30 -38 -27 -43 3
-4 -15 -8 -40 -8 -25 0 -46 4 -46 10 0 5 -10 18 -22 29 -20 19 -21 30 -20 142
0 67 4 125 9 128 13 9 18 92 16 241 -1 95 2 137 10 143 9 7 9 10 -1 14 -9 4
-10 8 -2 18 12 14 10 52 -3 73 -10 15 1 35 14 27 5 -4 9 3 9 14 0 12 -5 21
-11 21 -6 0 -7 5 -2 13 4 6 9 39 10 72 1 33 5 71 8 83 4 17 2 22 -6 16 -7 -4
-9 -3 -5 4 7 12 19 112 18 155 -1 17 4 27 13 27 12 0 15 21 15 113 0 63 3 117
7 121 4 4 9 51 10 104 1 53 5 122 8 152 3 30 8 84 11 120 4 36 10 67 15 68 5
2 9 46 9 98 0 61 4 93 10 89 6 -4 10 40 10 125 0 127 -5 152 -37 187 -14 15
-47 18 -38 3 3 -5 2 -10 -4 -10 -14 0 -61 -48 -61 -62 0 -6 -8 -18 -17 -27
-10 -9 -20 -27 -21 -41 -2 -14 -8 -26 -13 -28 -5 -2 -9 -12 -9 -23 0 -10 -4
-19 -10 -19 -5 0 -10 -9 -10 -20 0 -11 -4 -20 -10 -20 -5 0 -10 -11 -10 -25 0
-15 -7 -39 -15 -55 -9 -17 -12 -30 -8 -30 5 0 4 -4 -2 -8 -18 -13 -35 -51 -35
-77 0 -14 -4 -25 -10 -25 -5 0 -10 -8 -10 -18 0 -17 -55 -130 -69 -142 -3 -3
-7 -12 -9 -20 -2 -8 -8 -16 -13 -18 -5 -2 -9 -12 -9 -23 0 -10 -4 -19 -10 -19
-5 0 -10 -7 -10 -15 0 -8 -3 -15 -8 -15 -4 0 -13 -15 -21 -32 -8 -18 -18 -36
-23 -39 -5 -3 -10 -12 -12 -20 -4 -24 -38 -83 -57 -100 -11 -9 -19 -21 -19
-28 0 -6 -4 -11 -10 -11 -5 0 -10 -7 -10 -15 0 -18 -19 -54 -40 -75 -8 -8 -16
-22 -18 -30 -2 -8 -8 -17 -13 -18 -5 -2 -7 -8 -3 -13 3 -5 0 -9 -5 -9 -6 0
-19 -18 -28 -40 -10 -22 -21 -40 -25 -40 -5 0 -8 -8 -8 -18 0 -10 -9 -24 -20
-32 -11 -8 -20 -22 -20 -32 0 -10 -5 -18 -11 -18 -5 0 -7 -4 -4 -10 3 -5 -6
-21 -21 -35 -16 -15 -22 -25 -13 -25 12 0 12 -2 0 -9 -7 -5 -10 -14 -7 -20 5
-7 2 -10 -6 -9 -7 2 -13 -4 -13 -12 0 -8 -6 -19 -12 -23 -7 -4 -13 -13 -13
-18 0 -6 -6 -16 -12 -24 -29 -30 -48 -56 -48 -65 0 -6 -6 -10 -12 -10 -10 0
-10 -2 -1 -8 9 -6 7 -12 -7 -22 -11 -8 -20 -22 -20 -32 0 -10 -4 -18 -10 -18
-5 0 -10 -7 -10 -16 0 -8 -4 -13 -8 -10 -4 2 -9 -5 -9 -17 -1 -12 -7 -23 -13
-25 -5 -2 -10 -10 -10 -18 0 -8 -4 -14 -10 -14 -5 0 -10 -8 -10 -18 0 -11 -9
-27 -20 -37 -11 -10 -20 -24 -20 -32 0 -7 -4 -13 -10 -13 -5 0 -10 -7 -10 -15
0 -20 -20 -55 -43 -77 -11 -9 -16 -22 -12 -28 3 -5 -1 -13 -9 -16 -9 -3 -16
-14 -16 -23 0 -9 -9 -23 -20 -31 -14 -10 -16 -16 -7 -22 9 -6 9 -8 0 -8 -7 0
-13 -7 -13 -15 0 -8 -4 -15 -10 -15 -5 0 -10 -12 -10 -26 0 -14 -4 -23 -8 -20
-4 2 -14 -10 -22 -27 -7 -18 -21 -39 -29 -47 -9 -8 -18 -24 -19 -35 -2 -11 -8
-21 -13 -23 -5 -2 -9 -10 -9 -18 0 -8 -4 -14 -10 -14 -5 0 -10 -11 -10 -25 0
-14 -4 -25 -10 -25 -5 0 -10 -7 -10 -15 0 -8 -4 -15 -10 -15 -5 0 -10 -7 -10
-15 0 -9 -9 -25 -20 -37 -11 -12 -20 -28 -20 -35 0 -7 -4 -13 -10 -13 -5 0 -9
-3 -8 -7 4 -12 -26 -73 -34 -73 -5 0 -8 -9 -8 -20 0 -11 -4 -20 -10 -20 -5 0
-10 -9 -10 -20 0 -11 -4 -20 -10 -20 -5 0 -10 -9 -10 -20 0 -11 -4 -20 -10
-20 -5 0 -10 -9 -10 -20 0 -11 -4 -20 -10 -20 -5 0 -10 -9 -10 -20 0 -11 -4
-20 -10 -20 -5 0 -10 -7 -10 -16 0 -9 -8 -24 -17 -33 -10 -9 -20 -27 -22 -41
-1 -13 -10 -31 -20 -40 -9 -8 -18 -24 -19 -35 -2 -11 -8 -21 -13 -23 -5 -2 -9
-10 -9 -18 0 -8 -4 -14 -10 -14 -5 0 -10 -6 -10 -13 0 -18 -24 -67 -32 -67 -5
0 -8 -6 -8 -13 0 -18 -24 -67 -32 -67 -5 0 -8 -8 -8 -19 0 -10 -7 -24 -15 -31
-8 -7 -12 -16 -9 -21 3 -5 0 -9 -5 -9 -6 0 -11 -7 -11 -16 0 -9 -5 -12 -12 -8
-7 4 -10 4 -6 -1 7 -8 -16 -58 -39 -82 -14 -15 -83 -18 -83 -3 0 6 -6 10 -14
10 -8 0 -18 9 -21 20 -3 11 -13 20 -21 20 -8 0 -17 7 -20 15 -3 8 -14 17 -24
20 -11 3 -22 15 -25 26 -4 10 -11 19 -16 19 -7 0 -110 92 -141 127 -16 18
-129 139 -143 154 -8 9 -15 21 -15 27 0 7 -7 12 -16 12 -8 0 -12 4 -9 10 3 5
1 10 -4 10 -6 0 -11 7 -11 16 0 8 -4 12 -10 9 -5 -3 -10 1 -10 10 0 9 -4 13
-10 10 -6 -3 -10 1 -10 10 0 9 -5 13 -10 10 -6 -3 -10 4 -10 17 0 14 -3 18 -8
11 -5 -8 -15 -3 -30 17 -13 16 -23 32 -22 35 0 3 -10 16 -22 29 -13 13 -30 33
-38 46 -8 13 -25 33 -37 46 -13 12 -24 28 -25 35 -2 7 -13 24 -26 37 -12 13
-20 28 -17 33 4 5 -2 9 -11 9 -10 0 -14 3 -11 6 4 4 -2 14 -12 23 -10 9 -29
38 -41 64 -12 26 -25 47 -29 47 -4 0 -18 21 -31 48 -13 26 -26 49 -29 52 -15
13 -31 52 -31 77 0 22 -2 25 -10 13 -8 -13 -10 -12 -10 3 0 9 -4 17 -10 17 -5
0 -10 7 -10 15 0 8 -9 30 -20 50 -11 20 -20 42 -20 50 0 8 -4 15 -8 15 -12 0
-32 70 -32 109 0 19 -4 30 -10 26 -5 -3 -10 3 -10 15 0 12 -4 19 -8 16 -5 -3
-9 1 -9 9 0 19 -22 95 -35 119 -6 12 -6 16 1 11 6 -3 11 -1 11 4 0 6 -4 11
-10 11 -5 0 -10 14 -10 30 0 17 -4 30 -8 30 -8 0 -16 65 -15 117 1 13 -3 20
-8 17 -5 -3 -9 41 -9 100 0 71 -4 106 -11 106 -8 0 -9 20 -5 63 14 150 16 187
18 265 2 45 6 82 10 82 5 0 8 13 8 29 0 17 4 33 10 36 5 3 10 19 10 36 0 16 4
29 9 29 5 0 11 15 14 33 14 83 35 147 49 147 5 0 8 14 8 30 0 17 5 30 10 30 6
0 10 9 10 20 0 11 5 20 10 20 6 0 10 9 10 20 0 11 5 20 10 20 6 0 10 9 10 20
0 11 5 20 10 20 6 0 10 9 10 20 0 11 5 20 11 20 5 0 8 4 4 9 -3 5 0 15 7 23 7
7 14 20 16 28 2 8 8 18 14 21 6 4 8 17 5 29 -4 16 -2 20 9 16 13 -5 19 5 15
27 0 4 3 7 8 7 5 0 18 20 30 45 12 25 26 43 31 40 9 -5 12 1 9 21 0 3 9 14 20
23 12 10 21 24 21 30 0 7 5 9 12 5 8 -5 9 0 6 14 -4 12 -2 22 4 22 13 0 38 26
38 40 0 6 5 8 10 5 6 -3 10 5 10 19 0 16 7 27 20 31 11 3 20 12 20 20 0 8 9
17 20 20 11 3 20 11 20 16 0 6 -6 7 -13 3 -8 -5 -8 -2 2 9 7 9 22 17 33 17 10
0 17 4 13 9 -7 13 249 271 269 271 9 0 16 7 16 15 0 8 4 15 10 15 5 0 20 11
34 25 14 14 30 25 37 25 6 0 24 14 39 30 15 17 33 30 39 30 7 0 23 11 36 24
13 14 34 27 45 31 11 3 20 11 20 16 0 5 8 9 18 9 10 0 24 9 32 20 8 11 21 20
30 20 9 0 22 9 30 20 8 11 22 20 32 20 10 0 18 5 18 10 0 6 9 10 20 10 11 0
20 5 20 10 0 6 10 10 23 10 18 0 19 2 7 10 -12 7 -8 10 15 10 19 0 36 8 45 20
8 11 22 20 32 20 10 0 18 5 18 10 0 6 10 10 23 10 27 1 60 24 49 35 -4 5 0 6
9 2 9 -3 29 1 44 9 15 8 34 14 41 14 8 0 14 3 14 8 0 11 51 32 77 32 13 0 26
6 29 14 3 8 13 12 24 9 10 -3 21 0 24 6 4 6 18 11 32 11 14 0 22 4 19 10 -6 9
0 11 45 14 8 1 20 4 25 7 6 3 26 6 45 8 19 2 37 6 40 10 12 15 52 31 78 31 15
0 33 5 40 12 9 9 12 9 12 0 0 -7 7 -12 15 -12 8 0 15 5 15 10 0 6 13 10 29 10
36 0 92 20 86 30 -7 11 58 20 69 9 5 -4 18 -3 28 2 11 6 38 9 60 7 26 -1 43 2
46 10 4 13 15 16 25 6z m1377 -124 c0 -5 -5 -10 -11 -10 -5 0 -7 5 -4 10 3 6
8 10 11 10 2 0 4 -4 4 -10z m-710 -1356 c0 -8 -5 -12 -10 -9 -6 4 -8 11 -5 16
9 14 15 11 15 -7z"/>
<path d="M3405 3100 c3 -5 8 -10 11 -10 2 0 4 5 4 10 0 6 -5 10 -11 10 -5 0
-7 -4 -4 -10z"/>
<path d="M6098 3943 c-10 -2 -18 -9 -18 -14 0 -5 -9 -9 -20 -9 -21 0 -27 -15
-10 -25 6 -3 10 -1 10 5 0 7 6 10 13 7 15 -6 41 12 45 31 1 6 1 11 0 11 -2 -1
-11 -3 -20 -6z"/>
<path d="M6076 3887 c-16 -12 -16 -14 5 -32 19 -17 21 -17 16 -3 -3 9 0 19 9
22 18 7 19 26 1 26 -7 0 -21 -6 -31 -13z"/>
<path d="M6080 3815 c-8 -9 -8 -15 -2 -15 18 0 42 12 42 21 0 14 -26 10 -40
-6z"/>
<path d="M6107 3763 c-11 -13 -16 -27 -13 -30 3 -4 6 -1 6 5 0 5 12 14 26 19
21 7 24 11 13 20 -11 9 -18 5 -32 -14z"/>
</g>
</svg>
